<?xml version="1.0" standalone="no"?>
<!DOCTYPE svg PUBLIC "-//W3C//DTD SVG 20010904//EN"
 "http://www.w3.org/TR/2001/REC-SVG-20010904/DTD/svg10.dtd">
<svg version="1.0" xmlns="http://www.w3.org/2000/svg"
 width="962.000000pt" height="1280.000000pt" viewBox="0 0 962.000000 1280.000000"
 preserveAspectRatio="xMidYMid meet">
<g transform="translate(0.000000,1280.000000) scale(0.100000,-0.100000)"
fill="#000000" stroke="none">
<path d="M965 12777 c-11 -8 -131 -76 -267 -152 l-247 -137 -130 96 c-72 53
-137 99 -145 102 -11 4 -18 -5 -25 -33 -6 -21 -40 -137 -76 -258 -37 -121 -66
-227 -66 -235 0 -8 92 -658 205 -1445 113 -786 247 -1720 297 -2075 l91 -645
154 -318 154 -318 34 -292 c31 -264 33 -294 19 -309 -14 -16 -14 -24 2 -90 9
-40 23 -89 30 -108 8 -19 21 -98 29 -175 22 -195 107 -934 251 -2163 35 -304
52 -479 46 -490 -5 -9 -45 -181 -90 -382 -44 -201 -92 -414 -106 -475 -95
-413 -128 -671 -129 -990 0 -235 10 -351 45 -528 42 -212 140 -448 252 -612
56 -81 264 -308 348 -380 142 -120 402 -221 769 -299 130 -28 413 -66 487 -66
130 0 457 106 653 212 509 275 887 906 1079 1799 17 79 34 154 36 167 3 12 11
22 18 22 9 0 38 109 91 348 43 191 86 365 96 387 28 64 719 1228 739 1245 26
22 101 146 101 167 0 10 128 234 284 498 265 448 285 480 312 481 15 1 29 5
31 10 2 5 23 43 48 84 36 61 42 76 30 83 -8 4 -15 13 -15 20 0 7 31 62 68 124
47 78 80 121 111 145 36 27 73 80 190 275 140 232 192 308 177 256 -4 -12 -50
-112 -102 -223 -52 -111 -93 -204 -91 -206 2 -2 638 949 1412 2113 l1409 2118
17 420 c9 231 20 447 25 479 6 49 5 58 -7 50 -8 -4 -113 -80 -234 -168 -120
-87 -227 -161 -236 -163 -18 -5 -22 13 -35 145 -4 40 -11 75 -16 78 -5 3 -193
3 -417 -1 l-407 -8 -40 -75 c-21 -42 -44 -77 -50 -79 -5 -2 -100 118 -210 267
-132 179 -205 270 -217 270 -33 0 -731 -130 -738 -137 -4 -5 -39 -84 -77 -178
-93 -226 -115 -272 -119 -259 -2 7 22 81 53 165 31 85 57 161 58 170 1 17
-682 739 -700 739 -7 0 -247 -84 -534 -186 -393 -140 -525 -183 -533 -175 -7
7 -17 33 -23 59 l-10 47 -12 -42 c-7 -24 -17 -61 -23 -84 -6 -25 -15 -39 -24
-37 -7 2 -182 167 -389 368 -207 201 -380 366 -385 368 -4 1 -269 -119 -587
-267 -384 -179 -581 -276 -586 -288 -3 -10 -9 -35 -13 -55 -10 -65 -25 -42
-25 40 l0 77 -385 405 c-211 223 -390 409 -398 414 -9 6 -105 -54 -325 -203
-172 -117 -319 -211 -327 -209 -8 2 -148 152 -310 333 -376 419 -346 388 -370
372z m655 -5312 l0 -95 210 -336 210 -337 0 -82 c0 -54 -4 -86 -13 -93 -8 -7
-74 4 -227 39 -118 27 -217 52 -221 57 -4 4 -27 178 -50 387 l-43 380 57 88
c32 48 62 87 67 87 6 0 10 -39 10 -95z m1301 -638 c105 -172 195 -316 199
-320 4 -5 17 -4 28 2 12 6 23 7 26 3 8 -14 -37 -244 -49 -248 -18 -7 -748 165
-757 178 -4 7 -8 83 -8 169 l0 156 72 84 c226 263 270 310 284 299 7 -7 99
-152 205 -323z m1149 252 c0 -5 -5 -30 -11 -54 l-11 -44 132 -192 c73 -105
134 -198 137 -208 5 -19 -164 -520 -182 -539 -9 -10 -70 0 -326 59 -173 39
-320 76 -326 83 -10 9 -3 73 31 299 24 158 46 291 49 294 18 17 484 313 495
313 6 0 12 -5 12 -11z m-2776 -224 c8 -88 11 -164 7 -168 -9 -9 -114 9 -143
24 -11 6 -19 29 -24 76 -11 90 -11 88 6 86 9 -1 37 30 68 79 32 47 57 77 63
71 5 -5 15 -81 23 -168z m3941 -375 c30 -60 55 -116 55 -123 0 -17 -228 -508
-244 -524 -9 -10 -66 0 -276 48 -146 33 -269 64 -273 69 -9 8 56 237 72 253 6
6 20 -6 41 -34 17 -24 35 -44 39 -44 4 0 121 105 260 233 139 127 257 232 262
232 5 0 34 -49 64 -110z m-3953 19 c22 -5 41 -15 43 -22 3 -10 105 -1163 105
-1189 0 -13 -67 -9 -78 5 -11 13 -172 1133 -172 1196 0 32 1 33 32 27 18 -3
49 -11 70 -17z m536 -125 c108 -25 201 -48 206 -51 11 -8 -2 -1155 -14 -1167
-15 -15 -266 39 -274 59 -9 26 -138 1177 -132 1191 3 8 8 14 12 14 3 0 94 -21
202 -46z m918 -214 c188 -44 345 -80 348 -80 14 0 1 -80 -84 -535 -119 -633
-108 -585 -129 -585 -46 0 -464 98 -472 111 -5 8 -9 68 -9 134 0 66 -5 320
-11 564 -5 244 -8 450 -5 457 3 8 8 14 12 14 4 0 161 -36 350 -80z m3176 5
c15 -28 28 -55 28 -62 0 -12 -216 -400 -235 -421 -9 -10 -37 -7 -146 18 -74
17 -138 36 -144 41 -10 10 1 47 46 147 16 34 33 62 38 62 6 0 22 -22 36 -49
13 -27 28 -52 33 -55 4 -2 71 81 147 185 88 119 146 188 155 187 8 -2 27 -26
42 -53z m-2154 -244 c161 -37 297 -72 303 -78 11 -11 -334 -1028 -356 -1052
-11 -11 -46 -6 -216 31 -190 41 -204 46 -207 67 -4 28 146 1047 158 1079 5 12
13 22 17 22 5 0 140 -31 301 -69z m936 -218 c148 -35 250 -63 253 -71 5 -11
-448 -995 -467 -1015 -10 -11 -341 60 -357 76 -9 9 24 131 143 527 177 591
161 540 171 540 4 0 120 -26 257 -57z m1513 -75 c19 -37 39 -65 44 -62 5 3 9
0 9 -5 0 -6 -9 -11 -21 -11 -33 0 -158 31 -164 40 -6 9 37 102 58 128 14 17
24 5 74 -90z m-743 -105 c65 -15 120 -32 122 -38 5 -12 -517 -947 -545 -978
-15 -15 -23 -16 -74 -6 -31 7 -61 17 -66 23 -6 7 63 182 195 496 112 267 208
495 214 508 12 28 11 28 154 -5z m597 -139 c39 -9 73 -22 75 -29 5 -13 -542
-922 -576 -959 -14 -15 -26 -17 -55 -12 -20 4 -38 13 -41 20 -4 11 472 952
498 984 13 15 15 15 99 -4z m-4619 -277 c4 -7 8 -19 8 -28 0 -9 18 -222 40
-474 43 -487 46 -552 29 -522 -13 22 -152 1015 -144 1034 6 17 55 10 67 -10z
m459 -91 c56 -13 106 -30 111 -38 4 -7 6 -83 3 -168 -2 -85 -8 -393 -11 -685
-4 -344 -9 -532 -16 -536 -20 -13 -63 7 -70 32 -9 28 -158 1340 -158 1387 0
40 5 40 141 8z m734 -164 c203 -46 210 -48 213 -73 4 -31 -236 -1311 -248
-1323 -9 -9 -122 9 -151 25 -14 7 -18 38 -23 211 -14 463 -28 1180 -22 1193 3
8 9 15 13 14 4 0 103 -21 218 -47z m830 -188 c88 -19 165 -40 172 -47 9 -9
-39 -160 -208 -652 -121 -352 -223 -643 -228 -648 -10 -10 -128 16 -144 32 -8
8 15 187 88 673 54 365 103 669 108 675 5 7 19 11 31 8 11 -3 93 -21 181 -41z
m854 -192 c41 -9 76 -22 77 -27 2 -6 -128 -291 -289 -635 l-293 -625 -52 2
c-71 3 -96 17 -89 51 12 57 379 1268 388 1278 10 12 35 7 258 -44z m608 -145
c9 -9 -39 -101 -204 -392 -118 -209 -221 -387 -229 -395 -12 -12 -14 -12 -14
1 0 21 330 803 342 810 14 9 90 -9 105 -24z m497 -103 c9 -3 16 -12 16 -20 0
-14 -432 -729 -456 -754 -36 -37 -2 37 182 397 208 404 204 398 258 377z"/>
</g>
</svg>
