<?xml version="1.0" standalone="no"?>
<!DOCTYPE svg PUBLIC "-//W3C//DTD SVG 20010904//EN"
 "http://www.w3.org/TR/2001/REC-SVG-20010904/DTD/svg10.dtd">
<svg version="1.0" xmlns="http://www.w3.org/2000/svg"
 width="1707.000000pt" height="1707.000000pt" viewBox="0 0 1707.000000 1707.000000"
 preserveAspectRatio="xMidYMid meet">
<metadata>
Created by potrace 1.11, written by Peter Selinger 2001-2013
</metadata>
<g transform="translate(0.000000,1707.000000) scale(0.100000,-0.100000)"
fill="#000000" stroke="none">
<path d="M3354 17011 c-130 -82 -625 -353 -637 -348 -7 2 -90 61 -186 131 -96
70 -179 125 -184 123 -12 -4 -35 -69 -87 -247 -22 -80 -61 -213 -85 -296 l-44
-152 20 -138 c11 -77 21 -155 24 -174 2 -19 7 -51 9 -70 3 -19 8 -53 11 -75 9
-62 24 -166 29 -205 13 -86 37 -258 42 -290 2 -19 9 -64 14 -100 13 -90 19
-133 31 -220 6 -41 12 -86 14 -100 2 -14 7 -47 11 -75 3 -27 8 -59 10 -70 2
-11 7 -40 10 -65 3 -25 7 -56 9 -70 2 -14 9 -61 15 -105 6 -44 13 -91 15 -105
2 -14 11 -74 20 -135 8 -60 18 -126 21 -145 2 -19 13 -96 24 -170 11 -74 22
-153 25 -175 3 -22 8 -56 11 -75 2 -19 18 -129 35 -245 17 -115 32 -226 35
-245 2 -19 6 -45 8 -56 4 -18 14 -93 21 -154 5 -37 17 -119 25 -165 5 -27 11
-72 15 -100 6 -58 12 -97 25 -180 5 -33 14 -96 20 -140 6 -44 13 -91 15 -105
2 -14 7 -45 10 -69 3 -23 7 -55 9 -70 7 -36 15 -97 21 -155 4 -28 8 -52 10
-55 1 -3 6 -35 10 -71 4 -36 8 -67 10 -70 2 -3 6 -34 10 -70 3 -35 8 -67 10
-70 1 -3 6 -30 9 -60 4 -30 8 -66 11 -80 2 -14 9 -63 15 -110 6 -47 13 -96 15
-110 3 -14 9 -56 14 -95 11 -77 13 -90 36 -250 9 -60 18 -123 20 -140 10 -101
23 -142 88 -275 38 -80 105 -219 149 -310 209 -431 194 -389 212 -575 4 -33 8
-71 10 -85 2 -14 7 -56 11 -94 4 -38 9 -79 11 -90 5 -33 13 -105 19 -186 4
-41 8 -89 10 -106 2 -18 -3 -44 -11 -59 -18 -35 -5 -124 41 -260 7 -22 16 -62
19 -90 4 -27 9 -57 11 -65 3 -13 11 -78 20 -165 3 -37 14 -127 20 -175 2 -19
7 -60 10 -90 3 -30 10 -89 15 -130 5 -41 12 -97 15 -125 3 -27 8 -69 10 -93 3
-23 7 -61 10 -85 2 -23 7 -64 10 -92 3 -27 8 -59 9 -71 2 -11 7 -52 11 -90 4
-38 8 -79 10 -92 2 -13 7 -53 10 -90 3 -37 8 -78 11 -92 5 -29 10 -71 19 -155
3 -33 8 -71 10 -85 2 -14 6 -56 10 -93 3 -37 8 -76 10 -85 1 -9 6 -48 9 -87 4
-38 9 -77 11 -85 2 -8 6 -46 10 -83 3 -37 8 -76 9 -85 3 -17 13 -98 22 -179 6
-58 14 -131 19 -168 2 -16 9 -75 15 -130 6 -55 13 -113 15 -130 4 -33 22 -183
31 -260 3 -27 7 -63 9 -80 12 -105 16 -140 25 -230 15 -157 21 -230 21 -261 0
-16 -27 -148 -61 -294 -51 -220 -221 -976 -236 -1045 -7 -36 -44 -228 -59
-305 -7 -41 -17 -97 -21 -125 -3 -27 -8 -59 -10 -70 -2 -11 -7 -47 -10 -80 -3
-33 -7 -67 -9 -75 -19 -72 -28 -735 -12 -911 9 -105 48 -326 76 -430 43 -161
160 -453 213 -531 10 -14 18 -29 18 -32 0 -23 124 -191 225 -305 284 -322 419
-426 695 -536 202 -81 574 -181 777 -210 21 -3 61 -10 88 -15 46 -8 80 -13
190 -26 22 -3 67 -9 100 -13 157 -22 294 -1 560 86 397 130 656 283 915 543
161 160 346 408 458 611 235 426 402 896 526 1481 39 180 44 198 56 198 17 0
54 144 155 590 59 262 109 431 140 470 7 8 27 42 45 75 17 33 35 65 40 70 4 6
19 30 33 55 36 65 133 230 296 505 79 132 151 254 161 270 156 269 326 544
399 645 29 41 75 120 101 175 62 127 168 313 522 907 216 364 241 399 284 410
27 7 41 24 88 106 56 98 65 125 46 137 -5 3 -10 14 -10 23 0 36 178 312 223
345 31 24 117 130 117 146 0 6 3 11 8 11 4 0 12 9 17 20 25 50 332 539 351
559 12 12 11 -8 -1 -34 -7 -17 -24 -52 -36 -80 -12 -27 -40 -88 -61 -135 -22
-47 -60 -130 -84 -185 -25 -55 -49 -108 -54 -117 -6 -10 -7 -18 -3 -18 6 0
3351 5014 3677 5510 l75 115 6 160 c4 88 8 198 10 245 2 47 6 153 10 235 8
225 22 478 31 568 3 31 3 57 -1 57 -7 0 -96 -62 -385 -269 -107 -77 -210 -148
-228 -158 -47 -26 -48 -24 -68 152 -10 87 -17 120 -26 126 -13 8 -742 1 -1080
-10 -16 -1 -28 -7 -28 -13 -1 -18 -95 -181 -107 -185 -12 -4 -142 161 -360
457 -22 30 -49 65 -59 77 -11 12 -46 56 -79 97 -65 82 -75 86 -160 67 -22 -5
-65 -13 -95 -16 -30 -4 -57 -8 -60 -10 -3 -2 -93 -20 -200 -39 -107 -20 -208
-38 -225 -41 -16 -3 -41 -8 -55 -10 -61 -12 -77 -16 -105 -21 -16 -3 -60 -12
-97 -20 -64 -15 -67 -17 -79 -52 -6 -20 -15 -41 -19 -47 -4 -5 -21 -46 -39
-90 -18 -44 -40 -98 -50 -120 -10 -22 -31 -71 -47 -110 -43 -104 -83 -182 -83
-164 -1 18 103 323 119 351 5 9 12 34 15 55 6 36 2 42 -66 118 -246 273 -817
868 -850 885 -17 10 -44 2 -444 -140 -44 -15 -127 -45 -185 -65 -58 -20 -114
-41 -125 -45 -32 -14 -472 -165 -563 -194 -116 -36 -118 -36 -137 26 -8 28
-15 58 -15 66 0 30 -12 2 -36 -84 -33 -122 -37 -124 -104 -63 -49 45 -298 282
-450 429 -214 206 -460 443 -489 469 -24 23 -40 30 -55 26 -24 -7 -344 -151
-525 -237 -68 -32 -125 -58 -127 -58 -3 0 -37 -15 -77 -34 -40 -19 -130 -62
-201 -95 -70 -34 -130 -61 -132 -61 -9 0 -468 -230 -477 -239 -5 -5 -15 -33
-21 -62 -20 -86 -36 -74 -37 28 -1 48 -2 93 -3 99 0 7 -28 40 -60 75 -59 63
-335 353 -450 473 -32 34 -120 126 -195 205 -341 360 -334 354 -367 340 -16
-7 -186 -117 -379 -244 -474 -313 -450 -299 -472 -283 -23 17 -229 237 -368
393 -38 43 -75 83 -81 89 -5 6 -32 36 -59 66 -186 213 -355 390 -370 389 -6 0
-37 -17 -71 -38z m925 -7062 l2 -120 280 -450 281 -449 -4 -111 c-2 -76 -7
-112 -16 -118 -16 -10 -139 11 -322 54 -167 39 -264 65 -271 72 -4 4 -11 31
-14 58 -3 28 -10 74 -15 103 -5 29 -9 56 -8 60 2 7 -9 99 -17 152 -3 14 -7 50
-9 80 -3 30 -7 71 -10 90 -3 19 -8 62 -11 95 -3 33 -7 76 -10 95 -5 44 -13
110 -20 175 -3 28 -8 67 -11 88 -4 23 -2 37 5 37 6 0 11 4 11 10 0 10 93 151
124 187 10 12 22 20 26 18 4 -3 9 -59 9 -126z m1552 -552 c43 -67 162 -258
265 -423 134 -217 191 -301 203 -299 9 2 16 4 16 5 0 9 35 5 36 -3 2 -19 -7
-91 -16 -137 -3 -14 -7 -37 -10 -52 -2 -15 -11 -53 -20 -83 -14 -49 -18 -55
-38 -50 -12 2 -67 14 -122 25 -173 36 -223 48 -480 110 -137 34 -257 63 -266
65 -43 9 -105 29 -113 37 -15 12 -16 27 -17 240 -1 154 2 200 12 211 8 7 37
40 64 72 52 59 55 63 133 155 161 188 250 276 265 261 6 -6 46 -66 88 -134z
m1714 24 c-4 -14 -8 -33 -10 -41 -2 -8 -6 -26 -9 -40 -8 -32 -18 -15 249 -405
34 -49 71 -106 83 -125 l21 -36 -25 -84 c-38 -132 -173 -529 -200 -587 -23
-52 -24 -53 -61 -47 -34 5 -214 40 -253 49 -8 2 -78 17 -155 35 -173 38 -364
86 -400 100 -27 10 -27 11 -22 83 3 41 11 102 16 138 5 35 13 84 16 109 6 45
16 106 35 218 5 31 13 82 16 112 3 30 8 58 10 61 2 3 6 21 9 40 3 21 16 42 32
54 37 27 552 355 559 355 3 0 21 11 41 25 42 28 57 24 48 -14z m-3721 -99 c24
-161 40 -370 30 -396 -11 -27 -186 10 -204 44 -5 10 -12 43 -15 72 -3 29 -8
68 -10 86 -4 26 -1 34 15 40 11 4 38 32 60 62 77 104 105 138 112 134 3 -2 9
-21 12 -42z m5286 -700 c33 -67 60 -131 60 -142 0 -34 -283 -651 -317 -691
-13 -16 -35 -17 -96 -5 -197 38 -623 139 -635 150 -12 13 65 305 87 329 13 13
35 -2 70 -48 18 -25 36 -45 40 -45 4 0 20 12 37 28 17 15 53 47 80 71 27 24
92 83 144 130 52 48 117 107 145 132 27 24 59 53 71 64 36 34 168 152 194 173
l25 21 17 -22 c10 -12 44 -77 78 -145z m-5277 45 c21 -8 42 -18 46 -23 5 -5
12 -45 16 -89 3 -44 8 -91 10 -105 2 -14 6 -57 9 -97 5 -68 10 -126 21 -238 3
-27 7 -81 10 -120 3 -38 7 -86 10 -105 2 -19 7 -66 10 -105 7 -85 14 -174 20
-235 17 -180 36 -421 39 -475 1 -27 -2 -30 -34 -33 -44 -4 -68 14 -75 54 -20
122 -45 277 -50 319 -3 28 -8 59 -10 70 -3 11 -7 38 -10 60 -3 22 -10 69 -16
105 -13 86 -16 105 -25 170 -4 30 -8 57 -9 60 -1 3 -5 37 -10 75 -5 39 -9 72
-10 75 0 3 -5 32 -9 65 -4 32 -9 66 -11 75 -2 8 -6 44 -10 80 -4 36 -8 67 -10
70 -2 3 -6 32 -9 65 -4 33 -8 67 -11 75 -3 14 -14 114 -20 185 -1 17 0 34 3
39 6 10 84 0 135 -17z m517 -122 c8 -2 76 -17 150 -35 74 -17 144 -33 155 -36
11 -2 52 -12 90 -22 l70 -18 5 -39 c12 -86 -5 -1430 -19 -1517 -4 -25 -346 49
-364 79 -3 4 -10 51 -16 103 -7 52 -14 111 -16 130 -3 19 -7 58 -10 85 -3 28
-10 84 -15 125 -6 41 -12 98 -15 125 -11 115 -20 200 -30 275 -5 44 -13 109
-20 185 -3 33 -8 76 -10 95 -2 19 -7 62 -10 95 -3 33 -8 78 -11 100 -11 93
-13 114 -19 188 -3 42 -3 82 1 88 6 10 19 9 84 -6z m1003 -234 c13 -5 37 -12
53 -14 16 -3 108 -23 204 -45 96 -22 267 -61 380 -87 269 -61 253 -53 246
-118 -3 -28 -10 -74 -16 -102 -5 -27 -11 -63 -14 -80 -6 -47 -26 -156 -36
-205 -5 -25 -11 -58 -14 -75 -3 -16 -25 -138 -51 -270 -25 -132 -48 -256 -51
-275 -2 -19 -7 -46 -10 -60 -3 -14 -8 -36 -10 -50 -23 -127 -58 -288 -65 -301
-9 -18 -12 -18 -142 7 -42 9 -89 18 -104 20 -15 3 -30 7 -33 9 -4 2 -20 6 -36
9 -62 11 -302 74 -320 84 -22 12 -21 3 -28 307 -22 1015 -24 1211 -18 1238 5
19 28 22 65 8z m4636 -66 c16 -25 34 -59 41 -76 15 -34 22 -17 -87 -217 -155
-286 -207 -372 -230 -378 -24 -6 -118 12 -275 53 -79 21 -98 29 -98 44 0 47
94 259 115 259 6 0 28 -29 49 -65 21 -36 41 -65 44 -65 9 0 34 32 194 244 128
168 194 246 210 246 5 0 21 -20 37 -45z m-3089 -296 c74 -17 143 -32 153 -34
10 -2 26 -6 35 -9 9 -3 31 -8 47 -11 67 -12 389 -95 396 -102 7 -8 -55 -223
-100 -348 -12 -33 -24 -67 -26 -75 -10 -42 -196 -584 -284 -829 -23 -63 -48
-125 -56 -137 -19 -29 -49 -26 -270 22 -11 2 -29 6 -40 9 -172 37 -223 50
-244 64 -11 7 -12 25 -7 83 4 41 9 86 11 99 3 13 7 47 10 74 3 28 8 57 10 65
2 8 7 39 10 69 4 30 8 62 10 71 2 9 6 41 10 71 3 30 8 61 10 69 2 8 7 40 10
70 3 30 8 68 11 83 3 16 7 38 8 50 2 12 6 42 10 67 14 82 16 98 21 141 3 24
10 69 15 99 14 84 19 111 25 165 11 81 35 188 46 201 5 6 17 10 27 8 9 -2 78
-18 152 -35z m1261 -295 c63 -14 125 -28 139 -30 90 -17 390 -97 410 -109 5
-3 -6 -40 -24 -83 -39 -90 -254 -565 -316 -697 -23 -49 -55 -117 -70 -150
-163 -352 -199 -423 -217 -427 -31 -6 -405 72 -445 93 -23 12 -23 32 2 127 32
118 99 352 114 397 8 22 35 114 61 205 26 91 49 172 52 180 3 8 7 20 9 25 21
74 146 479 150 486 7 12 7 12 135 -17z m2196 -76 c17 -29 43 -74 58 -101 15
-26 34 -51 43 -56 35 -20 -15 -23 -90 -6 -40 9 -85 19 -100 22 -47 9 -51 24
-23 87 32 72 54 106 69 106 6 0 26 -24 43 -52z m-994 -203 c120 -27 207 -53
207 -62 0 -7 -72 -140 -250 -463 -263 -475 -459 -819 -481 -841 -18 -18 -67
-17 -129 3 -58 18 -61 23 -40 76 11 26 51 128 90 226 39 99 80 198 90 220 10
23 39 93 65 156 26 63 53 129 61 145 7 17 61 145 120 285 58 140 111 261 116
268 14 16 23 16 151 -13z m839 -194 c56 -13 98 -31 98 -43 0 -19 -294 -518
-583 -988 -196 -319 -191 -312 -246 -304 -81 12 -90 -12 182 527 268 534 372
736 407 792 25 40 31 41 142 16z m-6165 -365 c12 -11 17 -50 28 -186 3 -41 8
-95 10 -120 2 -25 7 -74 10 -110 6 -76 14 -166 20 -230 3 -25 7 -74 10 -110 3
-36 7 -90 10 -120 2 -30 7 -89 11 -130 3 -41 7 -91 9 -110 11 -110 15 -264 6
-249 -9 14 -42 190 -55 294 -3 22 -12 85 -20 140 -8 55 -18 116 -20 135 -8 51
-40 288 -50 360 -6 50 -45 358 -51 402 -3 28 0 40 13 47 19 11 50 5 69 -13z
m590 -120 c56 -13 119 -32 140 -42 l38 -19 -2 -255 c-2 -350 -12 -1081 -19
-1330 -5 -179 -7 -229 -13 -262 -3 -21 -76 5 -87 31 -3 9 -8 25 -9 36 -2 11
-5 36 -8 55 -3 19 -8 62 -12 95 -4 33 -8 71 -10 85 -4 26 -10 78 -20 165 -3
28 -7 66 -10 85 -5 42 -13 107 -20 175 -3 28 -7 66 -10 85 -3 19 -7 60 -10 90
-4 30 -8 66 -10 80 -5 34 -14 113 -20 180 -3 30 -12 114 -20 185 -8 72 -17
150 -20 175 -3 25 -10 86 -15 135 -17 147 -23 243 -17 259 8 21 34 20 154 -8z
m898 -201 c66 -15 127 -28 135 -30 112 -25 209 -49 225 -58 39 -20 39 -26 11
-177 -3 -14 -8 -41 -10 -60 -3 -19 -8 -46 -11 -60 -6 -29 -22 -120 -30 -170
-5 -32 -31 -175 -41 -225 -5 -28 -24 -129 -30 -162 -3 -16 -21 -111 -40 -213
-20 -102 -38 -196 -40 -210 -2 -14 -7 -36 -10 -50 -3 -14 -8 -36 -10 -50 -3
-14 -9 -47 -14 -75 -5 -27 -12 -61 -14 -75 -2 -14 -9 -45 -15 -70 -10 -44 -16
-75 -26 -135 -14 -76 -19 -78 -133 -55 -83 16 -101 27 -103 65 0 11 -2 34 -4
50 -3 27 -6 104 -20 575 -13 421 -23 1177 -17 1203 6 22 21 21 197 -18z m1013
-229 c9 -3 28 -7 42 -10 43 -7 211 -47 300 -71 l85 -22 -1 -34 c-1 -19 -19
-86 -39 -149 -41 -129 -221 -661 -285 -845 -23 -66 -66 -190 -95 -275 -29 -85
-76 -218 -104 -295 -28 -76 -51 -141 -51 -143 0 -8 -94 8 -141 23 -27 9 -50
22 -50 28 -4 36 9 165 26 266 2 14 6 49 10 76 3 28 7 59 9 70 2 11 7 43 10 70
4 28 9 61 11 75 2 14 9 61 15 105 6 44 13 91 15 105 9 54 36 227 40 255 3 17
7 50 10 75 3 25 9 68 15 95 5 28 11 70 15 95 3 25 7 56 10 70 2 13 7 42 10 65
3 22 10 65 15 95 5 30 12 72 16 94 3 21 7 47 9 56 2 10 7 39 10 65 11 69 28
80 93 61z m1202 -271 c63 -14 124 -28 135 -30 11 -3 39 -10 63 -17 37 -11 42
-16 37 -35 -4 -19 -140 -321 -249 -555 -56 -120 -100 -215 -143 -308 -22 -47
-71 -150 -108 -230 -37 -80 -89 -190 -115 -245 -45 -94 -96 -203 -135 -287
-17 -37 -18 -38 -74 -37 -77 0 -125 18 -129 47 -2 12 9 64 24 115 14 50 30
106 34 122 5 17 17 59 28 95 81 263 135 442 147 485 7 28 21 73 31 100 9 28
20 64 24 80 15 59 210 684 222 710 14 32 29 31 208 -10z m908 -206 c23 -7 42
-18 42 -26 0 -16 -60 -137 -127 -256 -25 -45 -59 -107 -76 -137 -57 -104 -309
-545 -345 -605 -54 -89 -51 -47 7 97 187 466 392 936 411 941 17 5 28 3 88
-14z m706 -155 c9 -3 16 -14 16 -24 0 -14 -125 -233 -210 -370 -6 -8 -65 -107
-133 -220 -224 -373 -292 -475 -272 -409 13 42 365 740 443 879 81 144 103
164 156 144z"/>
</g>
</svg>
